<svg xmlns="http://www.w3.org/2000/svg" width="45" height="45" viewBox="0 0 45 45">
    <style>
        .st0{fill:#EF2F24;}
    </style>
    <path class="st0" d="M34.8 6c-1.5-2.3-5.2-2.2-5.2-2.2s-.9-1.3-3.9-1.4c-4.1-.1-7 2-10.2 0 1.2 2.2 3.3 2.2 3.3 2.2S17.1 6.4 13.3 6c1.5 2.4 4.6 1.3 5.2 1.1-3.3 1-2.1 5-7.2 4.6 2.8 3.5 5.4.8 5.4.8s-5 10.1-.2 14.9c2.7 2.7 19.3.7 15.1-3.6C21.5 13.7 29.3 5.5 34.8 6m-7.4-.8c-.1.5-.7.8-1.2.7-.5-.1-2-1-1.9-1.6.1-.5 1.9-.5 2.4-.4.6.2.9.8.7 1.3z"/>
    <path class="st0" d="M41.4 9c.8 2.2 1.2 4.5 1.2 7 0 11.1-9 20.1-20.1 20.1C11.4 36 2.4 27 2.4 15.9c0-2.4.4-4.8 1.2-7C1.5 12.3.4 16.2.4 20.4c0 12.2 9.9 22.1 22.1 22.1 12.2 0 22.1-9.9 22.1-22.1 0-4.1-1.2-8.1-3.2-11.4"/>
    <path class="st0" d="M37.8 9.1c.6 1.8 1 3.7 1 5.6 0 9-7.3 16.3-16.3 16.3S6.2 23.7 6.2 14.7c0-2 .4-3.9 1-5.6-1.7 2.7-2.6 5.9-2.6 9.3 0 9.9 8 17.9 17.9 17.9 9.9 0 17.9-8 17.9-17.9 0-3.4-1-6.6-2.6-9.3"/>
    <path class="st0" d="M34.1 9.1c.5 1.4.8 3 .8 4.6 0 7.3-5.6 13.2-12.5 13.2S10 21 10 13.7c0-1.6.3-3.2.8-4.6-1.3 2.2-2 4.8-2 7.6 0 8 6.1 14.6 13.7 14.6s13.7-6.5 13.7-14.6c-.1-2.8-.8-5.4-2.1-7.6"/>
</svg>
