<svg xmlns="http://www.w3.org/2000/svg" width="250" height="45" viewBox="0 0 250 45">
    <style>
        .st0{fill:#EF2F24;} .st1{fill:#231F20;}
    </style>
    <path class="st0" d="M86.7 6.3c-1.5-2.3-5.2-2.2-5.2-2.2s-.9-1.3-3.9-1.4c-4.1-.1-7 2-10.2 0 1.2 2.2 3.3 2.2 3.3 2.2s-1.6 1.7-5.4 1.4c1.5 2.4 4.6 1.3 5.2 1.1-3.3 1-2.1 5-7.2 4.6 2.8 3.5 5.4.8 5.4.8s-5 10.1-.2 14.9c2.7 2.7 19.3.7 15.1-3.6C73.3 14 81.1 5.8 86.7 6.3m-7.5-.8c-.1.5-.7.8-1.2.7-.5-.1-2-1-1.9-1.6.1-.5 1.9-.5 2.4-.4.6.2.9.7.7 1.3zM0 2.1h10.5c2.8 0 5 .2 6.6.7s2.7 1.1 3.5 1.9c.8.8 1.3 1.9 1.6 3.1.3 1.2.4 3.1.4 5.6v3.5c0 2.6-.3 4.4-.8 5.6-.5 1.2-1.5 2.1-2.9 2.7-1.4.6-3.3.9-5.5.9h-2.8v16.2H0V2.1M10.5 9v10.2h.8c1 0 1.6-.2 2-.7.4-.5.6-1.5.6-2.9v-3.3c0-1.4-.2-2.3-.6-2.7-.6-.4-1.5-.6-2.8-.6zm39.1-6.9v40.3H39.1V25.5H36v16.9H25.5V2.1H36v14.4h3.1V2.1h10.5m49.7 0h17.4v8.1h-7v7.6h6.6v7.7h-6.6v8.8h7.7v8.1H99.3V2.1m44.4 0v40.3h-9.1l-5.5-18.3v18.3h-8.7V2.1h8.7l5.9 18.2V2.1h8.7m4.2 0h10.5v40.2h-10.5zm35.9 0l-3.7 17.8 5.5 22.4H176c-1.2-4-2.2-8.9-3.2-14.7-.3 2.6-.6 5.3-1.1 8.1l-1 6.6h-10.2l3.8-22.4-3.8-17.8h10.1c.2 1.1.6 3 1.1 5.5.4 2 .8 3.8 1.1 5.4L175 2h8.8"/>
    <path class="st1" d="M209.8 2.1v8.1h-6.2v32.2h-10.5V10.2h-6.2V2.1h22.9m2.3 0h7.4c4.9 0 8.3.2 10 .6 1.7.4 3.2 1.4 4.3 2.9 1.1 1.6 1.7 4.1 1.7 7.5 0 3.1-.4 5.2-1.2 6.3-.8 1.1-2.3 1.7-4.6 1.9 2.1.5 3.5 1.2 4.2 2.1.7.9 1.2 1.7 1.3 2.4.2.7.3 2.7.3 6v10.6h-9.7V29c0-2.2-.2-3.5-.5-4s-1.2-.8-2.7-.8v18.1h-10.5V2.1M222.6 9v9c1.2 0 2-.2 2.5-.5s.7-1.4.7-3.1v-2.2c0-1.3-.2-2.1-.7-2.5-.5-.5-1.3-.7-2.5-.7zm16.9-6.9H250v40.2h-10.5z"/>
    <path class="st0" d="M93.2 9.2c.8 2.2 1.2 4.5 1.2 7 0 11.1-9 20.1-20.1 20.1-11.1 0-20.1-9-20.1-20.1 0-2.4.4-4.8 1.2-7-2.1 3.4-3.2 7.3-3.2 11.5 0 12.2 9.9 22.1 22.1 22.1 12.2 0 22.1-9.9 22.1-22.1 0-4.2-1.2-8.1-3.2-11.5"/>
    <path class="st0" d="M89.6 9.4c.6 1.8 1 3.7 1 5.6 0 9-7.3 16.3-16.3 16.3S58 24 58 15c0-2 .4-3.9 1-5.6-1.7 2.7-2.6 5.9-2.6 9.3 0 9.9 8 17.9 17.9 17.9 9.9 0 17.9-8 17.9-17.9 0-3.4-1-6.6-2.6-9.3"/>
    <path class="st0" d="M86 9.4c.5 1.4.8 3 .8 4.6 0 7.3-5.6 13.2-12.5 13.2S61.8 21.3 61.8 14c0-1.6.3-3.2.8-4.6-1.3 2.2-2 4.8-2 7.6 0 8 6.1 14.6 13.7 14.6C81.8 31.5 88 25 88 17c0-2.8-.8-5.4-2-7.6"/>
</svg>
